<svg xmlns="http://www.w3.org/2000/svg" viewBox="888.104 393.3 1956 2824">
	<path fill="#243757" d="M905.8,3140.3L1255.8,2573.3C1219.8,2514.3 1281.8,2469.3 1329.8,2493.3C1369.8,2518.3 1361.8,2601.3 1279.8,2589.3L928.8,3153.3C982.8,3166.3 1015.8,3132.3 997.8,3090.3L1615.8,2740.3L1866.8,2014.3C1761.8,1974.3 1650.8,1908.3 1558.8,1819.3L976.8,2344.3L938.8,3050.3C890.8,3053.3 870.8,3102.3 905.8,3140.3Z"/>
	<path fill="#243757" d="M1560.8,1784.3C1653.8,1867.3 1763.8,1927.3 1873.8,1984.3C1929.8,1988.3 1973.8,1933.3 1940.8,1877.3C1839.8,1824.3 1737.8,1760.3 1648.8,1689.3C1576.8,1674.3 1540.8,1736.3 1560.8,1784.3Z"/>
	<path fill="#243757" d="M1963.8,1844.3C1840.8,1786.3 1748.8,1730.3 1658.8,1658.3L2164.8,519.3L2351.8,609.3L2506.8,476.3L2376.8,791.3L2772.8,393.3L2548.8,757.3L2712.8,863.3L1963.8,1844.3Z"/>
	<path fill="none" stroke-width="20" stroke="#243757" d="M927.8,3157.3C944.8,3166.3 970.8,3175.3 998.8,3163.3C1530.8,2905.3 1321.8,3132.3 1292.8,3194.3C1257.8,3290.3 1715.8,3049.3 1937.8,3034.3C2041.8,3007.3 1887.8,3149.3 1957.8,3166.3C2063.8,3176.3 2189.8,3055.3 2330.8,3039.3C2380.8,3042.3 2243.8,3151.3 2294.8,3158.3C2481.8,3178.3 2709.8,3039.3 2843.8,3031.3"/>
	<path fill="#539dc0" d="M2213.8,1255.3C2312.8,1221.3 2411.8,1129.3 2417.8,974.3C2282.8,1025.3 2207.8,1160.3 2213.8,1255.3Z"/>
	<path fill="#0b6497" d="M2222.8,1242.3C2323.8,1206.3 2391.8,1101.3 2401.8,997.3C2300.8,1044.3 2221.8,1143.3 2222.8,1242.3Z"/>
	<path fill="#539dc0" d="M2222.8,1242.3C2299.8,1198.3 2353.8,1142.3 2368.8,1039.3C2279.8,1086.3 2238.8,1156.3 2222.8,1242.3Z"/>
	<path fill="#0b6497" d="M2222.8,1242.3C2267.8,1221.3 2293.8,1172.3 2296.8,1140.3C2265.8,1152.3 2227.8,1195.3 2222.8,1242.3Z"/>
	<path fill="#539dc0" d="M2152.8,1224.3L2262.8,1303.3L2191.8,1406.3C2088.8,1432.3 1983.8,1365.3 1967.8,1259.3C1935.8,1056.3 2151.8,984.3 2259.8,1068.3L2178.8,1182.3C2072.8,1126.3 1996.8,1222.3 2017.8,1302.3C2035.8,1364.3 2098.8,1384.3 2143.8,1373.3C2190.8,1361.3 2193.8,1269.3 2118.8,1269.3L2152.8,1224.3Z"/>
</svg>
