<svg viewBox="0 0 700 700" xmlns="http://www.w3.org/2000/svg">
	<style type="text/css">.e2-st0{fill:none;stroke:#FF0000;stroke-width:15;}
			.e2-st1{fill:#FF7802;stroke:#f7a001;}
			.e2-st2{fill:#562300;}
			.e2-st3{fill:#461d00;stroke:#333333;}</style>
	<path class="e2-st0" d="m1079 505c76-116 236-112 302 0 10 19-12 37-33 21-62-78-167-79-231 0-20 14-44 1-38-21m891-2h275c19-11 18-36-1-48h-275c-20 11-18 39 1 48zm871-48c77 108 226 105 299 1 8-25-17-38-39-20-52 71-164 73-219 1-19-18-44-7-41 18m897-32h258c36 0 31 22 21 41-71 97-213 96-292 2-14-17-11-43 13-43z"/>
	<path class="e2-st1" d="M350,0C156.7,0,0,156.7,0,350s156.7,350,350,350s350-156.7,350-350S543.3,0,350,0z"/>
	<path class="e2-st2" d="m198.7 511.5c76-116 236-112 302 0 10 19-12 37-33 21-62-78-167-79-231 0-20 14-44 1-38-21z"/>
	<path class="e2-st3" d="m220 228c-24.3 0-44 19.7-44 44s19.7 44 44 44 44-19.7 44-44-19.7-44-44-44m260 0c-24.3 0-44 19.7-44 44s19.7 44 44 44 44-19.7 44-44-19.7-44-44-44z"/>
</svg>